<svg xmlns="http://www.w3.org/2000/svg" viewBox="0 0 400 300" width="406" height="306" class="illustration styles_illustrationTablet__1DWOa"><g id="_182_code_css_flatline" data-name="#182_code_css_flatline"><rect x="88.14" y="63.04" width="223.73" height="143.26" rx="7" fill="#fff"></rect><path d="M304.86,206.8H95.14a7.5,7.5,0,0,1-7.5-7.5V70a7.51,7.51,0,0,1,7.5-7.5H304.86a7.51,7.51,0,0,1,7.5,7.5V199.3A7.5,7.5,0,0,1,304.86,206.8ZM95.14,63.54a6.51,6.51,0,0,0-6.5,6.5V199.3a6.51,6.51,0,0,0,6.5,6.5H304.86a6.51,6.51,0,0,0,6.5-6.5V70a6.51,6.51,0,0,0-6.5-6.5Z" fill="#231f20"></path><path d="M311.86,184.14H88.14a.5.5,0,0,1-.5-.5.5.5,0,0,1,.5-.5H311.86a.5.5,0,0,1,.5.5A.5.5,0,0,1,311.86,184.14Z" fill="#231f20"></path><polygon points="228.59 233.99 171.41 233.99 181.95 206.3 218.05 206.3 228.59 233.99" fill="#fff"></polygon><path d="M228.6,234.49H171.4a.52.52,0,0,1-.41-.21.5.5,0,0,1-.05-.46l10.54-27.7a.51.51,0,0,1,.47-.32h36.1a.51.51,0,0,1,.47.32l10.54,27.7a.5.5,0,0,1-.05.46A.52.52,0,0,1,228.6,234.49Zm-56.47-1h55.74L217.71,206.8H182.29Z" fill="#231f20"></path><rect x="161.34" y="232.37" width="77.31" height="7.47" rx="3.35" fill="#fff"></rect><path d="M235.3,240.34H164.7a3.86,3.86,0,0,1-3.86-3.85v-.77a3.86,3.86,0,0,1,3.86-3.85h70.6a3.86,3.86,0,0,1,3.86,3.85v.77A3.86,3.86,0,0,1,235.3,240.34Zm-70.6-7.47a2.86,2.86,0,0,0-2.86,2.85v.77a2.86,2.86,0,0,0,2.86,2.85h70.6a2.86,2.86,0,0,0,2.86-2.85v-.77a2.86,2.86,0,0,0-2.86-2.85Z" fill="#231f20"></path><rect x="96.12" y="69.79" width="207.75" height="105.08" fill="#68e1fd"></rect><rect x="96.12" y="69.79" width="207.75" height="105.08" fill="#231f20"></rect><rect x="96.12" y="69.79" width="105.08" height="105.08" fill="#68e1fd"></rect><polygon points="176.73 218.95 219.31 210.68 217.65 206.3 181.55 206.3 176.73 218.95" fill="#231f20"></polygon><path d="M176.73,219.45a.49.49,0,0,1-.38-.18.51.51,0,0,1-.09-.5l4.82-12.65a.5.5,0,0,1,.47-.32h36.1a.5.5,0,0,1,.46.32l1.67,4.38a.5.5,0,0,1-.37.67l-42.58,8.27Zm5.16-12.65-4.37,11.49,41.11-8-1.33-3.5Z" fill="#231f20"></path><path d="M222,85.12H209.34a.5.5,0,0,1,0-1H222a.5.5,0,0,1,0,1Z" fill="#68e1fd"></path><path d="M253.75,85.12H228.59a.5.5,0,0,1,0-1h25.16a.5.5,0,0,1,0,1Z" fill="#fff"></path><path d="M261.32,94.86H236.16a.5.5,0,0,1,0-1h25.16a.5.5,0,0,1,0,1Z" fill="#fff"></path><path d="M224.91,94.86H212.3a.5.5,0,0,1,0-1h12.61a.5.5,0,0,1,0,1Z" fill="#68e1fd"></path><path d="M225.39,104.6H215.26a.5.5,0,0,1-.5-.5.5.5,0,0,1,.5-.5h10.13a.51.51,0,0,1,.5.5A.5.5,0,0,1,225.39,104.6Z" fill="#68e1fd"></path><path d="M265.82,104.6H234.33a.5.5,0,0,1-.5-.5.5.5,0,0,1,.5-.5h31.49a.5.5,0,0,1,.5.5A.5.5,0,0,1,265.82,104.6Z" fill="#fff"></path><path d="M230.83,114.35H218.22a.5.5,0,0,1-.5-.5.5.5,0,0,1,.5-.5h12.61a.5.5,0,0,1,.5.5A.51.51,0,0,1,230.83,114.35Z" fill="#68e1fd"></path><path d="M272.33,114.35H234.89a.5.5,0,0,1-.5-.5.5.5,0,0,1,.5-.5h37.44a.5.5,0,0,1,.5.5A.5.5,0,0,1,272.33,114.35Z" fill="#fff"></path><path d="M227.48,124.09H214.87a.5.5,0,0,1,0-1h12.61a.5.5,0,0,1,0,1Z" fill="#68e1fd"></path><path d="M252.62,124.09H232.31a.5.5,0,0,1,0-1h20.31a.5.5,0,0,1,0,1Z" fill="#fff"></path><path d="M280.68,124.09H260.37a.5.5,0,0,1,0-1h20.31a.5.5,0,0,1,0,1Z" fill="#68e1fd"></path><path d="M219.22,133.83h-4.35a.5.5,0,0,1-.5-.5.51.51,0,0,1,.5-.5h4.35a.51.51,0,0,1,.5.5A.5.5,0,0,1,219.22,133.83Z" fill="#68e1fd"></path><path d="M252.62,133.83h-26a.5.5,0,0,1-.5-.5.51.51,0,0,1,.5-.5h26a.51.51,0,0,1,.5.5A.5.5,0,0,1,252.62,133.83Z" fill="#fff"></path><path d="M262.86,133.83h-7.25a.5.5,0,0,1-.5-.5.5.5,0,0,1,.5-.5h7.25a.5.5,0,0,1,.5.5A.5.5,0,0,1,262.86,133.83Z" fill="#68e1fd"></path><path d="M221.7,143.58h-6.83a.51.51,0,0,1-.5-.5.5.5,0,0,1,.5-.5h6.83a.5.5,0,0,1,.5.5A.51.51,0,0,1,221.7,143.58Z" fill="#68e1fd"></path><path d="M259,143.58H228.12a.51.51,0,0,1-.5-.5.5.5,0,0,1,.5-.5H259a.5.5,0,0,1,.5.5A.5.5,0,0,1,259,143.58Z" fill="#fff"></path><path d="M274.64,143.58H262a.5.5,0,0,1-.5-.5.5.5,0,0,1,.5-.5h12.61a.5.5,0,0,1,.5.5A.5.5,0,0,1,274.64,143.58Z" fill="#68e1fd"></path><path d="M218.6,153.32h-6.69a.5.5,0,0,1,0-1h6.69a.5.5,0,0,1,0,1Z" fill="#68e1fd"></path><path d="M255.61,153.32H226.39a.5.5,0,0,1,0-1h29.22a.5.5,0,0,1,0,1Z" fill="#fff"></path><path d="M224.52,163.06H211.91a.5.5,0,0,1-.5-.5.51.51,0,0,1,.5-.5h12.61a.5.5,0,0,1,.5.5A.5.5,0,0,1,224.52,163.06Z" fill="#68e1fd"></path><path d="M294.47,114.35H277.42a.51.51,0,0,1-.5-.5.5.5,0,0,1,.5-.5h17.05a.5.5,0,0,1,.5.5A.5.5,0,0,1,294.47,114.35Z" fill="#68e1fd"></path><path d="M269,85.17c-5.7,0-8.65,0-8.8-.07a.5.5,0,0,1,.23-1c.94.08,20.83,0,28.44,0h0a.5.5,0,0,1,0,1C280.4,85.15,273.76,85.17,269,85.17Z" fill="#68e1fd"></path><path d="M271.74,153.32H259a.5.5,0,0,1,0-1h12.76a.5.5,0,0,1,0,1Z" fill="#68e1fd"></path><path d="M242.46,163.06h-9.38a.5.5,0,0,1-.5-.5.51.51,0,0,1,.5-.5h9.38a.5.5,0,0,1,.5.5A.5.5,0,0,1,242.46,163.06Z" fill="#fff"></path><path d="M268.33,163.06H246a.5.5,0,0,1-.5-.5.51.51,0,0,1,.5-.5h22.3a.5.5,0,0,1,.5.5A.5.5,0,0,1,268.33,163.06Z" fill="#68e1fd"></path><path d="M230.65,80.9H96.12a.51.51,0,0,1-.5-.5.5.5,0,0,1,.5-.5H230.65a.5.5,0,0,1,.5.5A.5.5,0,0,1,230.65,80.9Z" fill="#231f20"></path><circle cx="104.79" cy="75.05" r="2.25" fill="#fff"></circle><circle cx="113.43" cy="75.05" r="2.25" fill="#fff"></circle><circle cx="122.06" cy="75.05" r="2.25" fill="#fff"></circle><rect x="105.38" y="86.83" width="86.26" height="35.5" fill="#fff"></rect><path d="M105.38,122.83A.5.5,0,0,1,105,122l31.52-28.29a.49.49,0,0,1,.67,0l26.5,24.42a.51.51,0,0,1,0,.71.5.5,0,0,1-.71,0L136.89,94.72l-31.18,28A.46.46,0,0,1,105.38,122.83Z" fill="#68e1fd"></path><path d="M158.52,114.48a.46.46,0,0,1-.36-.16.49.49,0,0,1,0-.7l16.94-15.78a.5.5,0,0,1,.69,0L192,113.62a.51.51,0,0,1,0,.71.5.5,0,0,1-.71,0L175.46,98.89l-16.6,15.46A.48.48,0,0,1,158.52,114.48Z" fill="#68e1fd"></path><path d="M160.14,102.07a4.3,4.3,0,1,1,3.75-4.26A4,4,0,0,1,160.14,102.07Zm0-7.53a3.31,3.31,0,1,0,2.75,3.27A3.05,3.05,0,0,0,160.14,94.54Z" fill="#68e1fd"></path><path d="M191,129.7H105.38a.5.5,0,0,1,0-1H191a.5.5,0,1,1,0,1Z" fill="#fff"></path><path d="M191,136.7H105.38a.5.5,0,0,1-.5-.5.5.5,0,0,1,.5-.5H191a.5.5,0,0,1,.5.5A.51.51,0,0,1,191,136.7Z" fill="#fff"></path><path d="M179.13,143.69H105.38a.5.5,0,0,1-.5-.5.5.5,0,0,1,.5-.5h73.75a.51.51,0,0,1,.5.5A.5.5,0,0,1,179.13,143.69Z" fill="#fff"></path><path d="M129.8,166.35H105.38a.5.5,0,0,1-.5-.5v-17a.5.5,0,0,1,.5-.5H129.8a.51.51,0,0,1,.5.5v17A.51.51,0,0,1,129.8,166.35Zm-23.92-1H129.3v-16H105.88Z" fill="#fff"></path><path d="M160.41,166.35H136a.51.51,0,0,1-.5-.5v-17a.51.51,0,0,1,.5-.5h24.42a.5.5,0,0,1,.5.5v17A.5.5,0,0,1,160.41,166.35Zm-23.92-1h23.42v-16H136.49Z" fill="#fff"></path><path d="M191,166.35H166.61a.5.5,0,0,1-.5-.5v-17a.5.5,0,0,1,.5-.5H191a.51.51,0,0,1,.5.5v17A.51.51,0,0,1,191,166.35Zm-23.92-1h23.42v-16H167.11Z" fill="#fff"></path><path d="M325.35,240.34H74.65a.5.5,0,0,1,0-1h250.7a.5.5,0,0,1,0,1Z" fill="#d1d3d4"></path><rect x="231.31" y="141.67" width="88.83" height="54.89" fill="#fff"></rect><path d="M320.14,197.07H231.31a.51.51,0,0,1-.5-.5v-54.9a.51.51,0,0,1,.5-.5h88.83a.51.51,0,0,1,.5.5v54.9A.51.51,0,0,1,320.14,197.07Zm-88.33-1h87.83v-53.9H231.81Z" fill="#d1d3d4"></path><path d="M320.14,151.8H231.88a.5.5,0,0,1,0-1h88.26a.5.5,0,0,1,0,1Z" fill="#d1d3d4"></path><path d="M244.46,170.27V168l7.71-5.41,1.51,2.87-5.51,3.71,5.51,3.71-1.51,2.88Z" fill="#68e1fd"></path><path d="M255,169.12c0-5.07,3.09-8.62,7.42-8.62a6.62,6.62,0,0,1,6.64,5.68l-3.27,1c-.46-1.94-1.63-3.08-3.37-3.08-2.34,0-3.89,2-3.89,5s1.55,5,3.89,5c1.76,0,3-1.2,3.44-3.41l3.32.95c-.62,3.86-3.32,6.1-6.76,6.1C258.08,177.74,255,174.19,255,169.12Z" fill="#68e1fd"></path><path d="M269.69,171.81l3.35-.7c.44,2.28,1.57,3.24,3.73,3.24,1.64,0,2.61-.58,2.61-1.59s-.69-1.47-4.08-2.35-5.13-2.39-5.13-4.93c0-2.9,2.29-4.95,5.8-4.95a6.28,6.28,0,0,1,6.49,5l-3.34.87a3.06,3.06,0,0,0-3.15-2.48c-1.38,0-2.28.61-2.28,1.52,0,.75.66,1.12,3.87,2,3.53,1,5.35,2.48,5.35,5.28,0,3.08-2.42,5.07-6.16,5.07C272.76,177.74,270.2,175.59,269.69,171.81Z" fill="#68e1fd"></path><path d="M283.43,171.81l3.35-.7c.44,2.28,1.57,3.24,3.73,3.24,1.65,0,2.62-.58,2.62-1.59s-.7-1.47-4.09-2.35-5.13-2.39-5.13-4.93c0-2.9,2.3-4.95,5.81-4.95a6.26,6.26,0,0,1,6.48,5l-3.33.87a3.07,3.07,0,0,0-3.15-2.48c-1.39,0-2.28.61-2.28,1.52,0,.75.65,1.12,3.86,2,3.53,1,5.36,2.48,5.36,5.28,0,3.08-2.42,5.07-6.17,5.07C286.51,177.74,284,175.59,283.43,171.81Z" fill="#68e1fd"></path><path d="M297.77,172.83l5.51-3.71-5.51-3.71,1.51-2.87L307,168v2.32l-7.71,5.44Z" fill="#68e1fd"></path><rect x="80.03" y="114.31" width="33.35" height="29.77" fill="#fff"></rect><path d="M113.38,144.59H80a.5.5,0,0,1-.5-.5V114.31a.5.5,0,0,1,.5-.5h33.35a.51.51,0,0,1,.5.5v29.78A.51.51,0,0,1,113.38,144.59Zm-32.85-1h32.35V114.81H80.53Z" fill="#d1d3d4"></path><path d="M113.38,118.82H80a.5.5,0,0,1-.5-.5.5.5,0,0,1,.5-.5h33.35a.5.5,0,0,1,.5.5A.51.51,0,0,1,113.38,118.82Z" fill="#d1d3d4"></path><path d="M84.75,131.22v-1.28l5.94-3.57,1,1.62-4.46,2.59,4.46,2.61-1,1.61Z" fill="#68e1fd"></path><path d="M92.52,136.17l7-12,1.33.84-7,12Z" fill="#68e1fd"></path><path d="M101.7,133.19l4.46-2.61L101.7,128l1-1.62,5.94,3.57v1.28l-5.94,3.58Z" fill="#68e1fd"></path></g></svg>