<svg id="Layer_1" data-name="Layer 1" xmlns="http://www.w3.org/2000/svg" viewBox="0 0 400 300" width="406" height="306" class="illustration styles_illustrationTablet__1DWOa"><title>#87_coding_twocolour</title><rect x="52.93" y="26.7" width="243.5" height="193.83" fill="#24285b"></rect><rect x="128.83" y="140.67" width="83.42" height="9.33" fill="#68e1fd"></rect><rect x="152.75" y="114.67" width="74.58" height="9.33" fill="#ffd200"></rect><rect x="152.75" y="163.23" width="99.41" height="9.33" fill="#68e1fd"></rect><rect x="152.75" y="187.75" width="99.41" height="9.33" fill="#ffd200"></rect><rect x="97.87" y="163.23" width="37.39" height="9.33" fill="#fff"></rect><rect x="97.87" y="187.75" width="37.39" height="9.33" fill="#fff"></rect><rect x="73.95" y="140.67" width="37.39" height="9.33" fill="#fff"></rect><circle cx="69.55" cy="42.44" r="4.4" fill="#fff"></circle><circle cx="82.64" cy="42.44" r="4.4" fill="#68e1fd"></circle><circle cx="94.97" cy="42.44" r="4.4" fill="#ffd200"></circle><rect x="73.95" y="69.67" width="37.39" height="9.33" fill="#fff"></rect><rect x="97.87" y="93.02" width="37.39" height="9.33" fill="#fff"></rect><rect x="152.75" y="93.02" width="74.58" height="9.33" fill="#ffd200"></rect><rect x="97.87" y="114.67" width="37.39" height="9.33" fill="#fff"></rect><rect x="126.28" y="69.67" width="77.02" height="9.33" fill="#68e1fd"></rect><rect x="219.41" y="69.67" width="54.68" height="9.33" fill="#68e1fd"></rect><path d="M271.75,86.08s-21.85-8.81-22.13,17.55L244.79,111s-36.81-2-46.13,19.67-32.8,71.14,1.9,73.66l18.62,5.18.23,11h30.21l38.43-67.93Z" opacity="0.24"></path><path d="M271.75,86.08s3-5.44,9.23-.08-3,11.55,6.21,18.14C287.19,104.14,272.32,111.68,271.75,86.08Z" fill="#ffd200"></path><path d="M271.75,86.08s3-5.44,9.23-.08-3,11.55,6.21,18.14C287.19,104.14,272.32,111.68,271.75,86.08Z" opacity="0.08"></path><path d="M261.59,97.68s-45.17,4.4-36.7,38.28,17.82,56.46,17.82,56.46h54.45S366.05,101.75,261.59,97.68Z" fill="#68e1fd"></path><path d="M296.41,121.59s-12.23,17.75-8,32.43l-11.59,26-27.2,20,47.54-7.6s15.78-22,17.92-33.14S296.41,121.59,296.41,121.59Z" opacity="0.08"></path><ellipse cx="267.38" cy="268.1" rx="106.01" ry="13.32" fill="#e6e6e6" opacity="0.45"></ellipse><rect x="235.26" y="206.86" width="71.13" height="60.4" fill="#e6e6e6"></rect><polygon points="264.98 209.51 258.68 254.82 269.82 256.93 267.38 267.26 306.38 267.26 306.38 221.53 303.61 212.69 264.98 209.51" opacity="0.14"></polygon><polygon points="291.72 226.56 281.04 263.49 276.82 261.2 280.63 220.53 291.72 226.56" fill="#f4a28c"></polygon><path d="M281,263.49s.73,4.25,3.8,5.73,1.21,6-3.37,2.9a28.88,28.88,0,0,1-4-3.18,9,9,0,0,0-4.14-2.06,1.5,1.5,0,0,1-1.08-1.3c-.49-2.35,4.88-4.23,4.88-4.23Z" fill="#68e1fd"></path><path d="M271.61,181.76s18.42-1.22,24.53,3,0,68,0,68l-28.34-1.82s6.7-46.41-4.3-54.3S271.61,181.76,271.61,181.76Z" fill="#24285b"></path><path d="M261.23,100.87s-5.67,8.92-.11,12.11,7.33-.45,7.33-.45,4.14,4.88,7.84,1.1,3.18-11.32-.59-14.8S261.23,100.87,261.23,100.87Z" fill="#fff"></path><path d="M262.52,101.16a43.6,43.6,0,0,1,.49,5c.08,2.28.81,5.67,4.4,6.33,5.55,1,7-7.74,7-7.74s3.49-8.22-2.52-9.35C266.52,94.34,261.42,93.61,262.52,101.16Z" fill="#f4a28c"></path><path d="M274.09,105.06s.32-2.66,2.64-2.55S278.14,107.6,274.09,105.06Z" fill="#f4a28c"></path><path d="M267.38,88a3.94,3.94,0,0,1,4.37-1.91c3.2.57,7.77,2.49,4.92,6.52S267.38,88,267.38,88Z" fill="#24285b"></path><path d="M263.86,103.58s.81-2.56-1.35-3.42S259.12,104.21,263.86,103.58Z" fill="#f4a28c"></path><polygon points="294.53 200.66 322.98 226.53 319.06 229.3 284.23 207.95 294.53 200.66" fill="#f4a28c"></polygon><path d="M323,226.53s4.13,1.22,6.82-.89,5.88,1.54,1.11,4.3a29.47,29.47,0,0,1-4.62,2.22,8.92,8.92,0,0,0-3.69,2.8,1.47,1.47,0,0,1-1.64.4c-2.32-.59-1.64-6.24-1.64-6.24Z" fill="#68e1fd"></path><path d="M303.6,107.9s22.36,9.8,33.27,44.81-7.26,41.31-53.45,33.12l-3.95-7.55s33.46,1.15,40-10.14S274.85,149.3,303.6,107.9Z" fill="#f4a28c"></path><path d="M235,107.9s-22.35,9.8-33.27,44.81S209,194,255.18,185.83l4-7.55s-33.47,1.15-40-10.14S263.76,149.3,235,107.9Z" fill="#f4a28c"></path><path d="M261.59,97.68s0,3.75,1.11,4.83c0,0,7.08,1.4,9.69-4.59,0,0-.61,4.06,2.22,5.71l2.12-1.12a7,7,0,0,0,.95-7.35c-1.9-4.09-1.2-6-5-7.34S259.54,89.19,261.59,97.68Z" fill="#ffd200"></path><polygon points="251.72 178.54 244.79 148.47 292.61 148.47 284.84 180.91 284.16 187.33 252.74 185.59 251.72 178.54" fill="#ffd200"></polygon><circle cx="269.13" cy="162.72" r="4.15" fill="#fff"></circle><path d="M241.29,193.57s1.31-13.76,16.62-15.23,52.88,27.51,52.88,27.51l-15.46,29.59Z" fill="#24285b"></path><path d="M241.29,193.57s-6.52,11.64,3.65,13.29,37,0,37,0Z" fill="#24285b"></path><path d="M202.53,252.67s-9.21-2.51-11.21-11.09c0,0,14.27-2.88,14.68,11.85Z" fill="#68e1fd" opacity="0.58"></path><path d="M203.66,251.76s-6.43-10.18-.77-19.69c0,0,10.85,6.89,6,19.71Z" fill="#68e1fd" opacity="0.73"></path><path d="M205.32,251.76S208.72,241,219,239c0,0,1.93,7-6.66,12.81Z" fill="#68e1fd"></path><polygon points="198.64 251.52 200.51 264.3 212.27 264.35 214 251.59 198.64 251.52" fill="#24285b"></polygon><rect x="29.5" y="197.08" width="60.07" height="41.3" fill="#ffd200"></rect><path d="M51.47,225.84a1.31,1.31,0,0,1-.86-.3l-9-7.12a1.38,1.38,0,0,1-.53-1.08,1.41,1.41,0,0,1,.52-1.09l9-7.25a1.39,1.39,0,0,1,1.74,2.17l-7.65,6.15,7.64,6a1.39,1.39,0,0,1-.86,2.48Z" fill="#fff"></path><path d="M67.77,225.84a1.37,1.37,0,0,1-1.09-.53,1.39,1.39,0,0,1,.23-1.95l7.64-6-7.65-6.15A1.39,1.39,0,0,1,68.64,209l9,7.25a1.41,1.41,0,0,1,.52,1.09,1.38,1.38,0,0,1-.53,1.08l-9,7.12A1.33,1.33,0,0,1,67.77,225.84Z" fill="#fff"></path><path d="M55.84,225.84a1.51,1.51,0,0,1-.58-.12,1.4,1.4,0,0,1-.68-1.85l6.56-14.36a1.39,1.39,0,0,1,2.53,1.15L57.11,225A1.4,1.4,0,0,1,55.84,225.84Z" fill="#fff"></path></svg>