<svg id="_180_code_html_flatline" data-name="#180_code_html_flatline" xmlns="http://www.w3.org/2000/svg" viewBox="0 0 400 300" width="406" height="306" class="illustration styles_illustrationTablet__1DWOa"><path d="M350.78,209.27H49.22a.5.5,0,0,1-.5-.5.51.51,0,0,1,.5-.5H350.78a.51.51,0,0,1,.5.5A.5.5,0,0,1,350.78,209.27Z" fill="#d1d3d4"></path><rect x="85.09" y="43.2" width="223.73" height="143.26" rx="7" fill="#fff"></rect><path d="M301.81,187H92.09a7.5,7.5,0,0,1-7.5-7.5V50.21a7.51,7.51,0,0,1,7.5-7.51H301.81a7.52,7.52,0,0,1,7.51,7.51V179.46A7.51,7.51,0,0,1,301.81,187ZM92.09,43.7a6.51,6.51,0,0,0-6.5,6.51V179.46a6.5,6.5,0,0,0,6.5,6.5H301.81a6.51,6.51,0,0,0,6.51-6.5V50.21a6.52,6.52,0,0,0-6.51-6.51Z" fill="#231f20"></path><path d="M308.82,164.3H85.09a.5.5,0,0,1-.5-.5.5.5,0,0,1,.5-.5H308.82a.51.51,0,0,1,.5.5A.5.5,0,0,1,308.82,164.3Z" fill="#231f20"></path><polygon points="225.55 214.16 168.36 214.16 178.9 186.46 215 186.46 225.55 214.16" fill="#fff"></polygon><path d="M225.55,214.66H168.36a.5.5,0,0,1-.47-.68l10.54-27.69a.51.51,0,0,1,.47-.33H215a.5.5,0,0,1,.47.33L226,214a.5.5,0,0,1,0,.46A.49.49,0,0,1,225.55,214.66Zm-56.47-1h55.74L214.66,187H179.25Z" fill="#231f20"></path><rect x="158.29" y="212.53" width="77.31" height="7.47" rx="3.35" fill="#fff"></rect><path d="M232.25,220.5h-70.6a3.85,3.85,0,0,1-3.86-3.85v-.76a3.86,3.86,0,0,1,3.86-3.86h70.6a3.86,3.86,0,0,1,3.86,3.86v.76A3.85,3.85,0,0,1,232.25,220.5ZM161.65,213a2.87,2.87,0,0,0-2.86,2.86v.76a2.86,2.86,0,0,0,2.86,2.85h70.6a2.86,2.86,0,0,0,2.86-2.85v-.76a2.86,2.86,0,0,0-2.86-2.86Z" fill="#231f20"></path><rect x="93.07" y="49.95" width="207.75" height="105.08" fill="#68e1fd"></rect><path d="M117,104.32v-3.74l15.24-10.4,2.59,4.71-11.44,7.56,11.44,7.6-2.59,4.67Z" fill="#fff"></path><path d="M139.46,86.93h6V99.11H158V86.93h6v31.12h-6V105.29H145.45v12.76h-6Z" fill="#fff"></path><path d="M177.46,92.94H167.7v-6h25.52v6h-9.76v25.11h-6Z" fill="#fff"></path><path d="M196.92,86.93h6.93l9.76,21.7h.08l9.84-21.7h6.9v31.12h-6V97.65h-.07l-9.49,20.4h-2.43L203,97.65h-.08v20.4h-6Z" fill="#fff"></path><path d="M235.9,86.93h6v25.12h14.27v6H235.9Z" fill="#fff"></path><path d="M259.08,110.05l11.45-7.6-11.45-7.56,2.59-4.71,15.25,10.4v3.74l-15.25,10.4Z" fill="#fff"></path><polygon points="173.68 199.11 216.26 190.84 214.6 186.46 178.5 186.46 173.68 199.11" fill="#231f20"></polygon><path d="M173.68,199.61a.49.49,0,0,1-.38-.18.51.51,0,0,1-.09-.5L178,186.29a.5.5,0,0,1,.47-.33h36.1a.51.51,0,0,1,.47.33l1.66,4.37a.5.5,0,0,1-.37.67l-42.58,8.27ZM178.84,187l-4.37,11.49,41.11-8-1.33-3.5Z" fill="#231f20"></path><path d="M317.52,248.47s4-1.59,4.21-8.88-7.66-14.94-12.71-18.68-14.48-3.36-17.75.37-6.53,10.28,1.87,19.81S312.57,251.36,317.52,248.47Z" fill="#fff"></path><path d="M311.09,250.44c-5.47,0-12.46-2.38-18.32-9-6.59-7.47-7.22-14.35-1.87-20.47,3.49-4,13.31-4.23,18.42-.44,2.19,1.62,13.13,10.19,12.91,19.09-.19,7.23-4,9.11-4.48,9.31A13.47,13.47,0,0,1,311.09,250.44Zm-11.15-31.63c-3.41,0-6.66.94-8.29,2.8-5,5.68-4.34,12.12,1.87,19.14,8.4,9.53,19.14,10,23.75,7.28l.07,0c.15-.06,3.71-1.6,3.89-8.42.16-6.52-6.63-13.92-12.51-18.27A15.26,15.26,0,0,0,299.94,218.81Z" fill="#231f20"></path><path d="M289.17,235.25a13.65,13.65,0,0,1,10.23-11.72c9.62-2.62,12.19-.57,12.19-.57" fill="#fff"></path><path d="M289.18,235.75h0a.5.5,0,0,1-.46-.53A14.25,14.25,0,0,1,299.27,223c9.76-2.65,12.52-.56,12.63-.47a.5.5,0,0,1-.62.79s-2.62-1.83-11.75.65a13.24,13.24,0,0,0-9.86,11.27A.49.49,0,0,1,289.18,235.75Z" fill="#231f20"></path><polygon points="275.85 257.63 118.06 257.63 136.5 225.67 257.4 225.67 275.85 257.63" fill="#fff"></polygon><path d="M275.85,258.12H118.06a.48.48,0,0,1-.43-.24.5.5,0,0,1,0-.5l18.44-32a.48.48,0,0,1,.43-.25H257.41a.5.5,0,0,1,.43.25l18.44,32a.5.5,0,0,1,0,.5A.51.51,0,0,1,275.85,258.12Zm-156.93-1H275l-17.86-31H136.79Z" fill="#231f20"></path><path d="M147.29,238.83h-10.8a.49.49,0,0,1-.42-.24.5.5,0,0,1,0-.49l2.17-4.21a.49.49,0,0,1,.44-.27h10.41a.5.5,0,0,1,.42.23.49.49,0,0,1,0,.47l-1.78,4.21A.51.51,0,0,1,147.29,238.83Zm-10-1H147l1.36-3.21H139Z" fill="#d1d3d4"></path><path d="M163,238.83H152.23a.53.53,0,0,1-.42-.21.5.5,0,0,1-.05-.46l1.6-4.21a.51.51,0,0,1,.47-.33h10.41a.51.51,0,0,1,.4.2.53.53,0,0,1,.08.44l-1.22,4.21A.48.48,0,0,1,163,238.83Zm-10.07-1h9.7l.93-3.21h-9.41Z" fill="#d1d3d4"></path><path d="M178.75,238.83H168a.51.51,0,0,1-.4-.19.51.51,0,0,1-.09-.43l1-4.21a.51.51,0,0,1,.49-.38h10.41a.5.5,0,0,1,.49.58l-.65,4.21A.51.51,0,0,1,178.75,238.83Zm-10.16-1h9.74l.49-3.21h-9.43Z" fill="#d1d3d4"></path><path d="M194.49,238.83h-10.8a.53.53,0,0,1-.38-.16.51.51,0,0,1-.12-.39l.48-4.21a.49.49,0,0,1,.49-.45h10.41a.51.51,0,0,1,.36.15.46.46,0,0,1,.14.36l-.08,4.21A.5.5,0,0,1,194.49,238.83Zm-10.24-1H194l.06-3.21h-9.45Z" fill="#d1d3d4"></path><path d="M210.22,238.83h-10.8a.49.49,0,0,1-.5-.49l-.09-4.21a.54.54,0,0,1,.14-.36.55.55,0,0,1,.36-.15h10.41a.5.5,0,0,1,.5.45l.47,4.21a.48.48,0,0,1-.49.55Zm-10.31-1h9.75l-.37-3.21h-9.45Z" fill="#d1d3d4"></path><path d="M226,238.83h-10.8a.49.49,0,0,1-.49-.42L214,234.2a.52.52,0,0,1,.5-.58h10.41a.49.49,0,0,1,.48.38l1,4.21a.48.48,0,0,1-.09.43A.49.49,0,0,1,226,238.83Zm-10.37-1h9.73l-.79-3.21h-9.44Z" fill="#d1d3d4"></path><path d="M241.68,238.83h-10.8a.49.49,0,0,1-.48-.36l-1.22-4.21a.53.53,0,0,1,.08-.44.54.54,0,0,1,.4-.2h10.42a.49.49,0,0,1,.46.33l1.61,4.21a.54.54,0,0,1-.06.46A.51.51,0,0,1,241.68,238.83Zm-10.42-1H241l-1.22-3.21h-9.4Z" fill="#d1d3d4"></path><path d="M257.41,238.83h-10.8a.51.51,0,0,1-.46-.3l-1.78-4.21a.49.49,0,0,1,0-.47.52.52,0,0,1,.42-.23h10.41a.52.52,0,0,1,.45.27l2.16,4.21a.5.5,0,0,1,0,.49A.51.51,0,0,1,257.41,238.83Zm-10.47-1h9.65l-1.65-3.21h-9.36Z" fill="#d1d3d4"></path><path d="M156.23,245.65H145.46a.52.52,0,0,1-.42-.23.47.47,0,0,1,0-.46l1.95-4.71a.5.5,0,0,1,.46-.31h10.36a.52.52,0,0,1,.41.21.52.52,0,0,1,.07.45l-1.54,4.7A.5.5,0,0,1,156.23,245.65Zm-10-1h9.66l1.21-3.71h-9.34Z" fill="#d1d3d4"></path><path d="M142,245.65h-9a.5.5,0,0,1-.43-.24.5.5,0,0,1,0-.49l2.42-4.7a.51.51,0,0,1,.45-.28h8.69a.5.5,0,0,1,.41.23.48.48,0,0,1,0,.48l-2.08,4.7A.5.5,0,0,1,142,245.65Zm-8.21-1h7.88l1.64-3.71h-7.62Z" fill="#d1d3d4"></path><path d="M171.93,245.65H161.16a.51.51,0,0,1-.49-.64l1.36-4.7a.5.5,0,0,1,.48-.37h10.37a.52.52,0,0,1,.49.6l-1,4.71A.5.5,0,0,1,171.93,245.65Zm-10.11-1h9.7l.75-3.71h-9.38Z" fill="#d1d3d4"></path><path d="M187.62,245.65H176.85a.49.49,0,0,1-.38-.18.49.49,0,0,1-.11-.4l.76-4.71a.5.5,0,0,1,.49-.42H188a.48.48,0,0,1,.36.16.5.5,0,0,1,.14.38l-.36,4.7A.5.5,0,0,1,187.62,245.65Zm-10.18-1h9.72l.28-3.71H178Z" fill="#d1d3d4"></path><path d="M203.32,245.65H192.55a.48.48,0,0,1-.36-.16.45.45,0,0,1-.14-.36l.16-4.7a.51.51,0,0,1,.5-.49h10.37a.5.5,0,0,1,.5.48l.24,4.7a.47.47,0,0,1-.14.37A.48.48,0,0,1,203.32,245.65Zm-10.25-1h9.72l-.18-3.71H193.2Z" fill="#d1d3d4"></path><path d="M219,245.65H208.24a.49.49,0,0,1-.49-.46l-.43-4.7a.45.45,0,0,1,.13-.38.47.47,0,0,1,.37-.17h10.36a.5.5,0,0,1,.49.42l.84,4.7a.48.48,0,0,1-.11.41A.49.49,0,0,1,219,245.65Zm-10.32-1h9.72l-.66-3.71h-9.4Z" fill="#d1d3d4"></path><path d="M234.71,245.65H223.94a.5.5,0,0,1-.49-.4l-1-4.7a.51.51,0,0,1,.49-.61h10.36a.5.5,0,0,1,.48.36l1.43,4.7a.46.46,0,0,1-.08.44A.49.49,0,0,1,234.71,245.65Zm-10.37-1H234l-1.13-3.71h-9.37Z" fill="#d1d3d4"></path><path d="M250.41,245.65H239.63a.51.51,0,0,1-.47-.34l-1.61-4.7a.5.5,0,0,1,.06-.46.52.52,0,0,1,.41-.21h10.37a.48.48,0,0,1,.45.31l2,4.7a.5.5,0,0,1-.46.7Zm-10.42-1h9.66l-1.59-3.71h-9.34Z" fill="#d1d3d4"></path><path d="M260.92,245.65h-7.08a.49.49,0,0,1-.45-.3l-2.16-4.7a.51.51,0,0,1,0-.48.54.54,0,0,1,.43-.23h6.81a.51.51,0,0,1,.44.28l2.42,4.7a.48.48,0,0,1,0,.49A.49.49,0,0,1,260.92,245.65Zm-6.76-1h5.94l-1.91-3.71h-5.73Z" fill="#d1d3d4"></path><path d="M160.38,233H150.7a.48.48,0,0,1-.41-.22.49.49,0,0,1,0-.47l1.58-3.81a.5.5,0,0,1,.46-.31h9.35a.49.49,0,0,1,.4.21.47.47,0,0,1,.07.44l-1.25,3.81A.49.49,0,0,1,160.38,233Zm-8.93-1H160l.92-2.81h-8.33Z" fill="#d1d3d4"></path><path d="M147.61,233H139.5a.5.5,0,0,1-.43-.24.5.5,0,0,1,0-.49l2-3.81a.48.48,0,0,1,.44-.27h7.83a.48.48,0,0,1,.42.23.49.49,0,0,1,0,.47l-1.68,3.81A.51.51,0,0,1,147.61,233Zm-7.29-1h7l1.25-2.81h-6.77Z" fill="#d1d3d4"></path><path d="M174.48,233H164.8a.52.52,0,0,1-.4-.2.53.53,0,0,1-.08-.44l1.1-3.81a.5.5,0,0,1,.48-.36h9.34a.52.52,0,0,1,.39.18.49.49,0,0,1,.1.42L175,232.6A.51.51,0,0,1,174.48,233Zm-9-1h8.61l.56-2.81h-8.36Z" fill="#d1d3d4"></path><path d="M188.58,233H178.9a.52.52,0,0,1-.5-.58l.62-3.81a.5.5,0,0,1,.49-.42h9.35a.5.5,0,0,1,.5.54l-.29,3.81A.49.49,0,0,1,188.58,233Zm-9.09-1h8.62l.21-2.81h-8.38Z" fill="#d1d3d4"></path><path d="M202.67,233H193a.51.51,0,0,1-.36-.15.47.47,0,0,1-.14-.37l.13-3.81a.5.5,0,0,1,.5-.48h9.35a.51.51,0,0,1,.5.47l.19,3.81a.5.5,0,0,1-.13.37A.52.52,0,0,1,202.67,233Zm-9.16-1h8.64l-.15-2.81h-8.39Z" fill="#d1d3d4"></path><path d="M216.77,233h-9.68a.49.49,0,0,1-.49-.46l-.35-3.81a.49.49,0,0,1,.13-.38.51.51,0,0,1,.37-.16h9.34a.5.5,0,0,1,.5.41l.67,3.81a.47.47,0,0,1-.11.41A.49.49,0,0,1,216.77,233Zm-9.22-1h8.62l-.49-2.81h-8.39Z" fill="#d1d3d4"></path><path d="M230.87,233h-9.68a.51.51,0,0,1-.49-.4l-.82-3.8a.48.48,0,0,1,.09-.42.51.51,0,0,1,.39-.19h9.35a.5.5,0,0,1,.48.35l1.16,3.81a.55.55,0,0,1-.08.45A.51.51,0,0,1,230.87,233Zm-9.28-1h8.6l-.85-2.81H221Z" fill="#d1d3d4"></path><path d="M245,233h-9.68a.51.51,0,0,1-.47-.34l-1.31-3.81a.51.51,0,0,1,.06-.45.52.52,0,0,1,.41-.21h9.35a.51.51,0,0,1,.46.3l1.64,3.81a.49.49,0,0,1-.05.47A.5.5,0,0,1,245,233Zm-9.32-1h8.56L243,229.19h-8.32Z" fill="#d1d3d4"></path><path d="M254.41,233h-6.36a.51.51,0,0,1-.46-.29l-1.74-3.81a.5.5,0,0,1,.45-.71h6.14a.5.5,0,0,1,.45.27l2,3.81a.5.5,0,0,1,0,.49A.49.49,0,0,1,254.41,233Zm-6-1h5.22l-1.45-2.81h-5.06Z" fill="#d1d3d4"></path><path d="M141.17,253.3H129.05a.5.5,0,0,1-.43-.24.5.5,0,0,1,0-.49l2.72-5.29a.52.52,0,0,1,.45-.27h11.64a.52.52,0,0,1,.42.23.49.49,0,0,1,0,.47L141.64,253A.51.51,0,0,1,141.17,253.3Zm-11.3-1h11l1.82-4.29H132.07Z" fill="#d1d3d4"></path><path d="M158.84,253.3H146.71a.5.5,0,0,1-.41-.22.5.5,0,0,1-.05-.46l2-5.29a.5.5,0,0,1,.47-.32h11.64a.51.51,0,0,1,.4.2.47.47,0,0,1,.08.44l-1.53,5.29A.5.5,0,0,1,158.84,253.3Zm-11.4-1h11l1.24-4.29H149.07Z" fill="#d1d3d4"></path><path d="M212.48,253.3h-48.1a.49.49,0,0,1-.39-.19.51.51,0,0,1-.09-.43l1.3-5.29a.51.51,0,0,1,.49-.38h46.17a.49.49,0,0,1,.49.44l.63,5.29a.5.5,0,0,1-.13.39A.48.48,0,0,1,212.48,253.3Zm-47.46-1h46.9l-.51-4.29H166.08Z" fill="#d1d3d4"></path><path d="M229.52,253.3H217.39a.5.5,0,0,1-.49-.42l-.82-5.29a.49.49,0,0,1,.11-.4.51.51,0,0,1,.38-.18h11.64a.51.51,0,0,1,.49.38l1.3,5.29a.48.48,0,0,1-.09.43A.49.49,0,0,1,229.52,253.3Zm-11.7-1h11.06L227.82,248H217.16Z" fill="#d1d3d4"></path><path d="M247.19,253.3H235.06a.5.5,0,0,1-.48-.36l-1.53-5.29a.53.53,0,0,1,.08-.44.54.54,0,0,1,.4-.2h11.64a.5.5,0,0,1,.47.32l2,5.29a.53.53,0,0,1-.06.46A.49.49,0,0,1,247.19,253.3Zm-11.75-1h11L244.83,248H234.2Z" fill="#d1d3d4"></path><path d="M264.86,253.3H252.73a.51.51,0,0,1-.46-.3L250,247.71a.49.49,0,0,1,.05-.47.5.5,0,0,1,.41-.23h11.65a.52.52,0,0,1,.44.27l2.72,5.29a.5.5,0,0,1,0,.49A.52.52,0,0,1,264.86,253.3Zm-11.8-1h11L261.83,248H251.25Z" fill="#d1d3d4"></path><rect x="118.06" y="257.62" width="157.79" height="4.06" fill="#231f20"></rect><path d="M275.85,262.18H118.06a.5.5,0,0,1-.5-.5v-4.06a.5.5,0,0,1,.5-.5H275.85a.51.51,0,0,1,.5.5v4.06A.5.5,0,0,1,275.85,262.18Zm-157.29-1H275.35v-3.06H118.56Z" fill="#231f20"></path><path d="M303.06,222.2s-2.53-4-6.2-3.91" fill="#fff"></path><path d="M303.06,222.7a.49.49,0,0,1-.42-.23s-2.41-3.68-5.71-3.68h-.06a.5.5,0,0,1-.5-.5.49.49,0,0,1,.49-.5h.07c3.85,0,6.44,4,6.55,4.14a.5.5,0,0,1-.15.69A.53.53,0,0,1,303.06,222.7Z" fill="#231f20"></path><rect x="41.97" y="131.73" width="96.9" height="68.97" fill="#fff"></rect><path d="M138.86,201.2H42a.5.5,0,0,1-.5-.5v-69a.5.5,0,0,1,.5-.5h96.89a.5.5,0,0,1,.5.5v69A.5.5,0,0,1,138.86,201.2Zm-96.39-1h95.89v-68H42.47Z" fill="#231f20"></path><path d="M138.86,139.05H42a.5.5,0,0,1-.5-.5.5.5,0,0,1,.5-.5h96.89a.5.5,0,0,1,.5.5A.5.5,0,0,1,138.86,139.05Z" fill="#231f20"></path><path d="M62.29,144.57H50.46a.5.5,0,0,1-.5-.5.5.5,0,0,1,.5-.5H62.29a.5.5,0,0,1,.5.5A.5.5,0,0,1,62.29,144.57Z" fill="#d1d3d4"></path><path d="M92.14,144.57H68.52a.51.51,0,0,1-.5-.5.5.5,0,0,1,.5-.5H92.14a.5.5,0,0,1,.5.5A.5.5,0,0,1,92.14,144.57Z" fill="#68e1fd"></path><path d="M99.25,150.7H75.63a.5.5,0,0,1-.5-.5.51.51,0,0,1,.5-.5H99.25a.5.5,0,0,1,.5.5A.5.5,0,0,1,99.25,150.7Z" fill="#68e1fd"></path><path d="M65.07,150.7H53.23a.5.5,0,0,1-.5-.5.51.51,0,0,1,.5-.5H65.07a.5.5,0,0,1,.5.5A.5.5,0,0,1,65.07,150.7Z" fill="#d1d3d4"></path><path d="M65.52,156.84H56a.5.5,0,0,1-.5-.5.51.51,0,0,1,.5-.5h9.51a.5.5,0,0,1,.5.5A.5.5,0,0,1,65.52,156.84Z" fill="#d1d3d4"></path><path d="M103.48,156.84H73.91a.5.5,0,0,1-.5-.5.51.51,0,0,1,.5-.5h29.57a.51.51,0,0,1,.5.5A.5.5,0,0,1,103.48,156.84Z" fill="#68e1fd"></path><path d="M70.63,163H58.79a.5.5,0,0,1-.5-.5.5.5,0,0,1,.5-.5H70.63a.51.51,0,0,1,.5.5A.5.5,0,0,1,70.63,163Z" fill="#d1d3d4"></path><path d="M109.59,163H74.44a.5.5,0,0,1-.5-.5.5.5,0,0,1,.5-.5h35.15a.5.5,0,0,1,.5.5A.5.5,0,0,1,109.59,163Z" fill="#68e1fd"></path><path d="M67.49,169.12H55.65a.5.5,0,0,1,0-1H67.49a.5.5,0,1,1,0,1Z" fill="#d1d3d4"></path><path d="M91.08,169.12H72a.5.5,0,1,1,0-1H91.08a.5.5,0,0,1,0,1Z" fill="#68e1fd"></path><path d="M117.42,169.12H98.36a.5.5,0,0,1,0-1h19.06a.5.5,0,1,1,0,1Z" fill="#68e1fd"></path><path d="M59.73,175.26H55.65a.5.5,0,0,1,0-1h4.08a.5.5,0,0,1,0,1Z" fill="#d1d3d4"></path><path d="M91.08,175.26H66.68a.5.5,0,0,1,0-1h24.4a.5.5,0,0,1,0,1Z" fill="#68e1fd"></path><path d="M100.7,175.26H93.89a.5.5,0,1,1,0-1h6.81a.5.5,0,0,1,0,1Z" fill="#68e1fd"></path><path d="M62.06,181.4H55.65a.51.51,0,0,1-.5-.5.5.5,0,0,1,.5-.5h6.41a.5.5,0,0,1,.5.5A.51.51,0,0,1,62.06,181.4Z" fill="#d1d3d4"></path><path d="M97.06,181.4h-29a.5.5,0,0,1-.5-.5.5.5,0,0,1,.5-.5h29a.5.5,0,0,1,.5.5A.51.51,0,0,1,97.06,181.4Z" fill="#68e1fd"></path><path d="M111.76,181.4H99.92a.5.5,0,0,1-.5-.5.5.5,0,0,1,.5-.5h11.84a.5.5,0,0,1,.5.5A.51.51,0,0,1,111.76,181.4Z" fill="#68e1fd"></path><path d="M59.15,187.54H52.87a.51.51,0,0,1-.5-.5.5.5,0,0,1,.5-.5h6.28a.5.5,0,0,1,.5.5A.5.5,0,0,1,59.15,187.54Z" fill="#d1d3d4"></path><path d="M93.89,187.54H66.47a.5.5,0,0,1-.5-.5.5.5,0,0,1,.5-.5H93.89a.5.5,0,0,1,.5.5A.5.5,0,0,1,93.89,187.54Z" fill="#68e1fd"></path><path d="M64.71,193.67H52.87a.5.5,0,0,1-.5-.5.51.51,0,0,1,.5-.5H64.71a.5.5,0,0,1,.5.5A.5.5,0,0,1,64.71,193.67Z" fill="#d1d3d4"></path><path d="M130.37,163h-16a.5.5,0,0,1-.5-.5.5.5,0,0,1,.5-.5h16a.5.5,0,0,1,.5.5A.5.5,0,0,1,130.37,163Z" fill="#68e1fd"></path><path d="M106.33,144.6c-4.56,0-7.92,0-8.07,0a.51.51,0,0,1-.39-.6.51.51,0,0,1,.56-.39c.77.05,19.53,0,26.72,0h0a.5.5,0,0,1,.5.49.51.51,0,0,1-.5.51Z" fill="#68e1fd"></path><path d="M109,187.54h-12a.5.5,0,0,1-.5-.5.5.5,0,0,1,.5-.5h12a.5.5,0,0,1,.5.5A.5.5,0,0,1,109,187.54Z" fill="#68e1fd"></path><path d="M81.55,193.67h-8.8a.5.5,0,0,1-.5-.5.5.5,0,0,1,.5-.5h8.8a.5.5,0,0,1,.5.5A.5.5,0,0,1,81.55,193.67Z" fill="#d1d3d4"></path><path d="M105.84,193.67H84.9a.5.5,0,0,1-.5-.5.5.5,0,0,1,.5-.5h20.94a.51.51,0,0,1,.5.5A.5.5,0,0,1,105.84,193.67Z" fill="#68e1fd"></path><rect x="291.62" y="55.79" width="41.61" height="37.15" fill="#fff"></rect><path d="M333.23,93.44H291.62a.5.5,0,0,1-.5-.5V55.79a.51.51,0,0,1,.5-.5h41.61a.5.5,0,0,1,.5.5V92.94A.5.5,0,0,1,333.23,93.44Zm-41.11-1h40.61V56.29H292.12Z" fill="#231f20"></path><path d="M333.23,61.29H291.62a.51.51,0,0,1-.5-.5.5.5,0,0,1,.5-.5h41.61a.5.5,0,0,1,.5.5A.5.5,0,0,1,333.23,61.29Z" fill="#231f20"></path><path d="M297.52,76.89v-1.6l7.41-4.46,1.26,2-5.57,3.24,5.57,3.26-1.26,2Z" fill="#68e1fd"></path><path d="M307.2,83.07l8.79-15,1.66,1-8.77,14.92Z" fill="#68e1fd"></path><path d="M318.66,79.35l5.57-3.26-5.57-3.24,1.26-2,7.42,4.46v1.6l-7.42,4.46Z" fill="#68e1fd"></path><rect x="68.56" y="25.97" width="61.36" height="40.21" fill="#fff"></rect><path d="M129.92,66.68H68.56a.5.5,0,0,1-.5-.5V26a.51.51,0,0,1,.5-.5h61.36a.5.5,0,0,1,.5.5V66.18A.5.5,0,0,1,129.92,66.68Zm-60.86-1h60.36V26.47H69.06Z" fill="#231f20"></path><path d="M129.92,30.45H68.56a.5.5,0,0,1,0-1h61.36a.5.5,0,0,1,0,1Z" fill="#231f20"></path><path d="M81.44,33.67h-7.5a.5.5,0,0,1-.5-.5.5.5,0,0,1,.5-.5h7.5a.5.5,0,0,1,.5.5A.51.51,0,0,1,81.44,33.67Z" fill="#68e1fd"></path><path d="M100.34,33.67h-15a.51.51,0,0,1-.5-.5.5.5,0,0,1,.5-.5h15a.5.5,0,0,1,.5.5A.5.5,0,0,1,100.34,33.67Z" fill="#68e1fd"></path><path d="M104.84,38.26h-15a.5.5,0,0,1-.5-.5.51.51,0,0,1,.5-.5h15a.5.5,0,0,1,.5.5A.5.5,0,0,1,104.84,38.26Z" fill="#68e1fd"></path><path d="M83.2,38.26H75.7a.5.5,0,0,1-.5-.5.5.5,0,0,1,.5-.5h7.5a.51.51,0,0,1,.5.5A.5.5,0,0,1,83.2,38.26Z" fill="#68e1fd"></path><path d="M83.48,42.86h-6a.5.5,0,0,1-.5-.5.5.5,0,0,1,.5-.5h6a.5.5,0,0,1,.5.5A.5.5,0,0,1,83.48,42.86Z" fill="#68e1fd"></path><path d="M107.52,42.86H88.79a.51.51,0,0,1-.5-.5.5.5,0,0,1,.5-.5h18.73a.5.5,0,0,1,.5.5A.51.51,0,0,1,107.52,42.86Z" fill="#68e1fd"></path><path d="M86.71,47.45H79.22a.5.5,0,0,1-.5-.5.5.5,0,0,1,.5-.5h7.49a.5.5,0,0,1,.5.5A.5.5,0,0,1,86.71,47.45Z" fill="#68e1fd"></path><path d="M111.39,47.45H89.13a.5.5,0,0,1-.5-.5.5.5,0,0,1,.5-.5h22.26a.51.51,0,0,1,.5.5A.5.5,0,0,1,111.39,47.45Z" fill="#68e1fd"></path><path d="M84.73,52.05h-7.5a.5.5,0,0,1,0-1h7.5a.5.5,0,0,1,0,1Z" fill="#68e1fd"></path><path d="M99.67,52.05H87.6a.5.5,0,0,1,0-1H99.67a.5.5,0,0,1,0,1Z" fill="#68e1fd"></path><path d="M116.35,52.05H104.28a.5.5,0,0,1,0-1h12.07a.5.5,0,0,1,0,1Z" fill="#d1d3d4"></path><path d="M79.81,56.65H77.23a.5.5,0,0,1-.5-.5.5.5,0,0,1,.5-.5h2.58a.5.5,0,0,1,.5.5A.5.5,0,0,1,79.81,56.65Z" fill="#68e1fd"></path><path d="M99.67,56.65H84.21a.51.51,0,0,1-.5-.5.5.5,0,0,1,.5-.5H99.67a.5.5,0,0,1,.5.5A.5.5,0,0,1,99.67,56.65Z" fill="#68e1fd"></path><path d="M107.76,56.65h-4.31a.5.5,0,0,1-.5-.5.5.5,0,0,1,.5-.5h4.31a.5.5,0,0,1,.5.5A.51.51,0,0,1,107.76,56.65Z" fill="#d1d3d4"></path><path d="M81.29,61.24H77.23a.5.5,0,0,1,0-1h4.06a.5.5,0,0,1,0,1Z" fill="#68e1fd"></path><path d="M103.45,61.24H85.11a.5.5,0,0,1,0-1h18.34a.5.5,0,0,1,0,1Z" fill="#68e1fd"></path><path d="M114.76,61.24h-7.5a.5.5,0,0,1,0-1h7.5a.5.5,0,0,1,0,1Z" fill="#d1d3d4"></path><path d="M124.55,47.45H114.41a.5.5,0,0,1-.5-.5.51.51,0,0,1,.5-.5h10.14a.5.5,0,0,1,.5.5A.5.5,0,0,1,124.55,47.45Z" fill="#d1d3d4"></path><path d="M109.42,33.69c-5.11,0-5.21,0-5.26,0a.51.51,0,0,1-.37-.6.49.49,0,0,1,.55-.38c.56,0,10.39,0,16.9,0h0a.49.49,0,0,1,.5.49.51.51,0,0,1-.5.51Z" fill="#d1d3d4"></path></svg>