<svg xmlns="http://www.w3.org/2000/svg" viewBox="0 0 400 300" width="406" height="306" class="illustration styles_illustrationTablet__1DWOa"><g id="_249_completed_task_outline" data-name="#249_completed_task_outline"><path d="M279.88,82.88a8.49,8.49,0,0,0-11.77,2.42l-51.28,66.44H183.38L132.11,85.3a8.5,8.5,0,0,0-14.2,9.35l50.77,77.11c.76,1.17,2.91,47.6,2.91,47.6h57s2.14-46.43,2.91-47.6l50.77-77.11A8.5,8.5,0,0,0,279.88,82.88Z" fill="#005683"></path><path d="M228.63,220.36h-57a1,1,0,0,1-1-1c-.82-17.81-2.24-44.87-2.81-47.19l-50.71-77a9.5,9.5,0,0,1,15.87-10.45l50.93,66h32.47l51-66.05A9.5,9.5,0,0,1,280.43,82h0a9.5,9.5,0,0,1,2.71,13.16l-50.7,77c-.57,2.32-2,29.38-2.82,47.19A1,1,0,0,1,228.63,220.36Zm-56.09-2h55.13c1-21.11,2.29-46,3-47.15L281.47,94.1a7.52,7.52,0,0,0-2.14-10.39h0a7.5,7.5,0,0,0-10.39,2.14l-51.32,66.51a1,1,0,0,1-.79.38H183.38a1,1,0,0,1-.79-.38L131.32,85.91a7.51,7.51,0,1,0-12.58,8.19l50.77,77.11C170.26,172.35,171.56,197.25,172.54,218.36Z" fill="#093f68"></path><rect x="194.68" y="159.12" width="10.85" height="46.46" fill="#093f68"></rect><path d="M205.53,206.59H194.68a1,1,0,0,1-1-1V159.12a1,1,0,0,1,1-1h10.85a1,1,0,0,1,1,1v46.47A1,1,0,0,1,205.53,206.59Zm-9.85-2h8.85V160.12h-8.85Z" fill="#093f68"></path><path d="M274.1,75V65.24a4.11,4.11,0,0,0-8.22,0V77.56h0c-.93,1.51-1.47,3.91-1.47,7.72,0,10.33,4.82,12.11,9.76,12.11s11.06-3.84,11.66-6.76C287,85.32,278.7,75.42,274.1,75Z" fill="#ffc9b0"></path><path d="M274.21,98.39c-4.62,0-10.76-1.35-10.76-13.11,0-3.55.47-6.15,1.43-7.93V65.24a5.11,5.11,0,1,1,10.22,0v8.92c3,.81,6.22,4,8.25,6.78,1.3,1.76,4.25,6.23,3.5,9.89S279.39,98.39,274.21,98.39Zm-7.33-21a1,1,0,0,1-.1.74c-.9,1.46-1.33,3.81-1.33,7.2,0,9.79,4.43,11.11,8.76,11.11,4.78,0,10.23-3.77,10.68-6,.4-2-.81-5.14-3.15-8.3-2.5-3.38-5.75-6-7.73-6.14a1,1,0,0,1-.91-1V65.24a3.11,3.11,0,1,0-6.22,0Z" fill="#093f68"></path><rect x="268.21" y="72.79" width="17.95" height="4.77" rx="2.38" fill="#ffc9b0"></rect><path d="M283.78,78.56H270.6a3.39,3.39,0,1,1,0-6.77h13.18a3.39,3.39,0,1,1,0,6.77ZM270.6,73.79a1.39,1.39,0,1,0,0,2.77h13.18a1.39,1.39,0,1,0,0-2.77Z" fill="#093f68"></path><rect x="268.21" y="77.56" width="17.95" height="4.77" rx="2.38" fill="#ffc9b0"></rect><path d="M283.78,83.32H270.6a3.38,3.38,0,1,1,0-6.76h13.18a3.38,3.38,0,1,1,0,6.76ZM270.6,78.56a1.38,1.38,0,1,0,0,2.76h13.18a1.38,1.38,0,1,0,0-2.76Z" fill="#093f68"></path><rect x="268.21" y="82.32" width="17.95" height="4.77" rx="2.38" fill="#ffc9b0"></rect><path d="M283.78,88.09H270.6a3.39,3.39,0,1,1,0-6.77h13.18a3.39,3.39,0,1,1,0,6.77ZM270.6,83.32a1.39,1.39,0,1,0,0,2.77h13.18a1.39,1.39,0,1,0,0-2.77Z" fill="#093f68"></path><path d="M284.54,93.86a1,1,0,0,1-.71-.3,1,1,0,0,1,0-1.41,4.16,4.16,0,0,0,1.33-2.67,1.39,1.39,0,0,0-1.39-1.39H270.6a1.39,1.39,0,1,0,0,2.77h7.69a1,1,0,0,1,0,2H270.6a3.39,3.39,0,1,1,0-6.77h13.18a3.39,3.39,0,0,1,3.39,3.39,6,6,0,0,1-1.92,4.09A1,1,0,0,1,284.54,93.86Z" fill="#093f68"></path><path d="M126.11,75V65.24a4.11,4.11,0,0,1,8.22,0V77.56h0c.93,1.51,1.48,3.91,1.48,7.72,0,10.33-4.83,12.11-9.76,12.11S115,93.55,114.35,90.63C113.26,85.32,121.51,75.42,126.11,75Z" fill="#ffc9b0"></path><path d="M126,98.39c-5.18,0-11.92-4-12.64-7.56s2.19-8.13,3.5-9.89c2-2.74,5.29-6,8.24-6.78V65.24a5.11,5.11,0,0,1,10.22,0V77.35c1,1.78,1.44,4.38,1.44,7.93C136.77,97,130.63,98.39,126,98.39Zm4.21-36.26a3.11,3.11,0,0,0-3.11,3.11V75a1,1,0,0,1-.91,1c-2,.18-5.22,2.76-7.73,6.14-2.34,3.16-3.55,6.34-3.14,8.3.45,2.19,5.89,6,10.68,6,4.33,0,8.76-1.32,8.76-11.11,0-3.39-.44-5.74-1.33-7.2a1,1,0,0,1-.11-.8v-12A3.11,3.11,0,0,0,130.22,62.13ZM126.11,75h0Z" fill="#093f68"></path><rect x="114.05" y="72.79" width="17.95" height="4.77" rx="2.38" transform="translate(246.05 150.34) rotate(-180)" fill="#ffc9b0"></rect><path d="M129.62,78.56H116.43a3.39,3.39,0,0,1,0-6.77h13.19a3.39,3.39,0,0,1,0,6.77Zm-13.19-4.77a1.39,1.39,0,0,0,0,2.77h13.19a1.39,1.39,0,0,0,0-2.77Z" fill="#093f68"></path><rect x="114.05" y="77.56" width="17.95" height="4.77" rx="2.38" transform="translate(246.05 159.88) rotate(-180)" fill="#ffc9b0"></rect><path d="M129.62,83.32H116.43a3.38,3.38,0,0,1,0-6.76h13.19a3.38,3.38,0,0,1,0,6.76Zm-13.19-4.76a1.38,1.38,0,0,0,0,2.76h13.19a1.38,1.38,0,0,0,0-2.76Z" fill="#093f68"></path><rect x="114.05" y="82.32" width="17.95" height="4.77" rx="2.38" transform="translate(246.05 169.42) rotate(180)" fill="#ffc9b0"></rect><path d="M129.62,88.09H116.43a3.39,3.39,0,0,1,0-6.77h13.19a3.39,3.39,0,0,1,0,6.77Zm-13.19-4.77a1.39,1.39,0,0,0,0,2.77h13.19a1.39,1.39,0,0,0,0-2.77Z" fill="#093f68"></path><path d="M115.67,93.86a1,1,0,0,1-.7-.29,6,6,0,0,1-1.92-4.09,3.38,3.38,0,0,1,3.38-3.39h13.19a3.39,3.39,0,0,1,0,6.77h-7.69a1,1,0,0,1,0-2h7.69a1.39,1.39,0,0,0,0-2.77H116.43a1.38,1.38,0,0,0-1.38,1.39,4.16,4.16,0,0,0,1.33,2.67,1,1,0,0,1,0,1.41A1,1,0,0,1,115.67,93.86Z" fill="#093f68"></path><path d="M234.39,227.17H165.82l-9.76-44.62a4.66,4.66,0,0,1,4.56-5.66h79a4.66,4.66,0,0,1,4.55,5.66Z" fill="#f56132"></path><path d="M234.39,228.17H165.82a1,1,0,0,1-1-.79l-9.76-44.62a5.66,5.66,0,0,1,5.54-6.87h79a5.66,5.66,0,0,1,5.53,6.87l-9.76,44.62A1,1,0,0,1,234.39,228.17Zm-67.77-2h67l9.59-43.83a3.66,3.66,0,0,0-3.58-4.45h-79a3.65,3.65,0,0,0-3.58,4.45Z" fill="#093f68"></path><rect x="165.5" y="227.17" width="69.62" height="7.12" fill="#f56132"></rect><path d="M235.12,235.29H165.5a1,1,0,0,1-1-1v-7.12a1,1,0,0,1,1-1h69.62a1,1,0,0,1,1,1v7.12A1,1,0,0,1,235.12,235.29Zm-68.62-2h67.62v-5.12H166.5Z" fill="#093f68"></path><path d="M194.67,157.7h11a0,0,0,0,1,0,0V164a4.66,4.66,0,0,1-4.66,4.66h-1.66a4.66,4.66,0,0,1-4.66-4.66V157.7A0,0,0,0,1,194.67,157.7Z" fill="#ffc9b0"></path><path d="M201,169.68h-1.66a5.67,5.67,0,0,1-5.66-5.67V157.7a1,1,0,0,1,1-1h11a1,1,0,0,1,1,1V164A5.67,5.67,0,0,1,201,169.68Zm-5.32-11V164a3.67,3.67,0,0,0,3.66,3.67H201a3.68,3.68,0,0,0,3.66-3.67V158.7Z" fill="#093f68"></path><path d="M164.07,129.12c-4-2.61-4.39-8.93-5.11-13.3a86,86,0,0,1,4.41-44.46,57.35,57.35,0,0,0,2.63,13c-1.67-5.1,4.42-14,6.64-18.16,3-5.67,6-9.94,11.08-14.19L190,66.4A50.94,50.94,0,0,0,196.41,51c-.33,1.41,16.63,15.69,17.13,15.62.86-.11,2-6,1.91-8.1,7,7.63,14.59,16.67,13.47,27a20.14,20.14,0,0,0,4.9-9.6,67.53,67.53,0,0,1,4.36,35.83c-.62,4.15-1.45,13-4.76,16-3.08,2.77-10.11.76-13.89.88l-33.89,1.06c-5.86.18-14.53,2.15-20.15.11A7,7,0,0,1,164.07,129.12Z" fill="#725858"></path><path d="M172,131.74a20.24,20.24,0,0,1-6.82-1,7.67,7.67,0,0,1-1.62-.81h0c-3.86-2.52-4.65-7.9-5.29-12.22-.09-.61-.17-1.19-.27-1.75a86.72,86.72,0,0,1,4.47-45,1,1,0,0,1,1.93.27,56.21,56.21,0,0,0,1,7.08,53.26,53.26,0,0,1,5-10.22c.53-.92,1-1.75,1.38-2.44a44.89,44.89,0,0,1,11.32-14.48A1,1,0,0,1,184,51a1,1,0,0,1,.68.57l5.53,12.65a49.82,49.82,0,0,0,5.27-13.43h0a1,1,0,0,1,1.2-.75,1,1,0,0,1,.77.89c1,1.84,12.64,12,15.88,14.36a25.81,25.81,0,0,0,1.17-6.72,1,1,0,0,1,1.73-.71c6.54,7.08,13.39,15.32,13.83,24.69a19.09,19.09,0,0,0,2.83-6.81,1,1,0,0,1,.88-.8,1,1,0,0,1,1,.61,68.12,68.12,0,0,1,4.43,36.36c-.07.48-.15,1-.23,1.62-.66,4.82-1.65,12.11-4.85,15-2.52,2.27-6.88,1.81-10.73,1.4a29.61,29.61,0,0,0-3.79-.26l-33.9,1.06c-1.65,0-3.55.25-5.55.46A81.39,81.39,0,0,1,172,131.74Zm-9.07-56a84.73,84.73,0,0,0-3,40c.09.56.18,1.16.27,1.78.58,3.93,1.29,8.81,4.4,10.84h0a6.2,6.2,0,0,0,1.21.6c3.78,1.37,9.25.8,14.08.3,2-.22,4-.42,5.69-.47l33.9-1.06a31,31,0,0,1,4.07.27c3.26.35,7.32.78,9.18-.9,2.66-2.38,3.63-9.52,4.21-13.77.08-.6.16-1.16.23-1.64A66.34,66.34,0,0,0,234,79.07a21.1,21.1,0,0,1-4.32,7.14,1,1,0,0,1-1.15.23,1,1,0,0,1-.58-1c1-9.11-5.25-17.39-11.7-24.55-.32,2.64-1,6.56-2.56,6.75s-14.89-12.17-16.84-14.24a51.87,51.87,0,0,1-6,13.55,1,1,0,0,1-.92.47,1,1,0,0,1-.84-.6l-5.77-13.18a43.73,43.73,0,0,0-9.81,13c-.38.71-.87,1.56-1.42,2.5C169.56,73.53,165.7,80.19,167,84h0a1,1,0,0,1-1.9.62h0A58.23,58.23,0,0,1,162.9,75.71Zm34.47-24.86Z" fill="#093f68"></path><ellipse cx="171.64" cy="129.17" rx="10.67" ry="9.19" fill="#ffc9b0"></ellipse><path d="M171.64,139.37c-6.44,0-11.67-4.58-11.67-10.2S165.2,119,171.64,119s11.66,4.57,11.66,10.19S178.07,139.37,171.64,139.37Zm0-18.39c-5.33,0-9.67,3.68-9.67,8.19s4.34,8.2,9.67,8.2,9.66-3.68,9.66-8.2S177,121,171.64,121Z" fill="#093f68"></path><ellipse cx="228.68" cy="129.17" rx="10.67" ry="9.19" fill="#ffc9b0"></ellipse><path d="M228.68,139.37c-6.44,0-11.67-4.58-11.67-10.2S222.24,119,228.68,119s11.66,4.57,11.66,10.19S235.11,139.37,228.68,139.37Zm0-18.39c-5.34,0-9.67,3.68-9.67,8.19s4.33,8.2,9.67,8.2,9.66-3.68,9.66-8.2S234,121,228.68,121Z" fill="#093f68"></path><circle cx="185.26" cy="122.28" r="2.98" fill="#093f68"></circle><circle cx="215.99" cy="122.28" r="2.98" fill="#093f68"></circle><path d="M211.89,136.66a11.74,11.74,0,0,1-23.47,0Z" fill="#fff"></path><path d="M200.16,149.39a12.75,12.75,0,0,1-12.74-12.73,1,1,0,0,1,1-1h23.47a1,1,0,0,1,1,1A12.74,12.74,0,0,1,200.16,149.39Zm-10.7-11.73a10.74,10.74,0,0,0,21.39,0Z" fill="#093f68"></path><path d="M200,133.29a17.8,17.8,0,0,1-2.91-.24,1,1,0,0,1-.81-1.15,1,1,0,0,1,1.16-.82,13.82,13.82,0,0,0,4.34.06c.13-.91-1-4-2.51-6.95a1,1,0,0,1,1.77-.93c1.05,2,3.4,6.89,2.53,8.82a1.67,1.67,0,0,1-1.13,1A10.42,10.42,0,0,1,200,133.29Z" fill="#093f68"></path><path d="M177.18,113.49a2,2,0,0,1-.21-4L191.1,108a2,2,0,1,1,.42,4l-14.13,1.48Z" fill="#093f68"></path><path d="M225.68,114.81a1.64,1.64,0,0,1-.38,0l-14-2.64a2,2,0,0,1,.75-3.93l14,2.64a2,2,0,0,1-.37,4Z" fill="#093f68"></path><path d="M200.16,157.7h0a29.46,29.46,0,0,1-29.45-29.45V98.81a53.18,53.18,0,0,1,26-11.21C223,97.39,229.6,98.81,229.6,98.81v29.44A29.45,29.45,0,0,1,200.16,157.7Z" fill="#ffc9b0"></path><path d="M200.16,158.7a30.48,30.48,0,0,1-30.45-30.45V98.81a1,1,0,0,1,.33-.74c.41-.37,10.21-9.07,26.54-11.46a1,1,0,0,1,.5,0c25.83,9.63,32.66,11.16,32.73,11.17a1,1,0,0,1,.79,1v29.44A30.48,30.48,0,0,1,200.16,158.7ZM171.71,99.27v29a28.45,28.45,0,1,0,56.89,0V99.59c-2.38-.62-10.63-3-32-11A53.31,53.31,0,0,0,171.71,99.27Z" fill="#093f68"></path><path d="M190.9,121H179.63a5.85,5.85,0,0,1-5.84-5.84v-4.63a5.85,5.85,0,0,1,5.84-5.84H190.9a5.84,5.84,0,0,1,5.83,5.84v4.63A5.84,5.84,0,0,1,190.9,121Zm-11.27-14.31a3.84,3.84,0,0,0-3.84,3.84v4.63a3.84,3.84,0,0,0,3.84,3.84H190.9a3.84,3.84,0,0,0,3.83-3.84v-4.63a3.84,3.84,0,0,0-3.83-3.84Z" fill="#093f68"></path><path d="M220.84,121H209.57a5.85,5.85,0,0,1-5.84-5.84v-4.63a5.85,5.85,0,0,1,5.84-5.84h11.27a5.84,5.84,0,0,1,5.83,5.84v4.63A5.84,5.84,0,0,1,220.84,121Zm-11.27-14.31a3.84,3.84,0,0,0-3.84,3.84v4.63a3.84,3.84,0,0,0,3.84,3.84h11.27a3.84,3.84,0,0,0,3.83-3.84v-4.63a3.84,3.84,0,0,0-3.83-3.84Z" fill="#093f68"></path><path d="M204.73,112.67a1,1,0,0,1-.62-.22c-3.15-2.47-7.05,0-7.22.06a1,1,0,0,1-1.38-.31,1,1,0,0,1,.31-1.37c.21-.14,5.26-3.3,9.53,0a1,1,0,0,1,.16,1.41A1,1,0,0,1,204.73,112.67Z" fill="#093f68"></path><path d="M167.2,121a1,1,0,0,1-.69-1.72l7.59-7.18a1,1,0,0,1,1.37,1.45l-7.59,7.18A1,1,0,0,1,167.2,121Z" fill="#093f68"></path><path d="M233.41,121a1,1,0,0,1-.69-.27l-7.59-7.18a1,1,0,1,1,1.37-1.45l7.59,7.18a1,1,0,0,1,0,1.41A1,1,0,0,1,233.41,121Z" fill="#093f68"></path><path d="M202.35,130.58a9.78,9.78,0,0,1-2.61-.36,1,1,0,0,1,.55-1.92c.18,0,4.51,1.23,5.46-1.61.77-2.33-3.53-7.59-6.42-10.36a1,1,0,1,1,1.38-1.45c.86.82,8.36,8.16,6.93,12.44C206.8,129.86,204.45,130.58,202.35,130.58Z" fill="#093f68"></path><circle cx="186.24" cy="112.37" r="2.36" fill="#093f68"></circle><circle cx="215.99" cy="112.37" r="2.36" fill="#093f68"></circle><path d="M177.19,104.08a2,2,0,0,1-1.18-3.61c.36-.26,9-6.36,17.56-1.71a2,2,0,0,1-1.9,3.52c-6.38-3.45-13.25,1.38-13.32,1.43A2,2,0,0,1,177.19,104.08Z" fill="#093f68"></path><path d="M221.2,104.09a2,2,0,0,1-1.16-.38c-.12-.08-7-4.87-13.32-1.43a2,2,0,1,1-1.9-3.52c8.61-4.65,17.2,1.45,17.56,1.71a2,2,0,0,1-1.18,3.62Z" fill="#093f68"></path><path d="M207.9,134.8H195.73s1.55,18.51,6.09,17S207.9,134.8,207.9,134.8Z" fill="#093f68"></path><path d="M201.29,152.86a2.64,2.64,0,0,1-1.46-.45c-3.65-2.4-4.88-15-5.09-17.52a1,1,0,0,1,.26-.76,1,1,0,0,1,.73-.33H207.9a1,1,0,0,1,.74.33,1,1,0,0,1,.25.77c-1.53,15.29-5.89,17.52-6.75,17.81A2.58,2.58,0,0,1,201.29,152.86Zm-4.46-17.06c.55,5.49,2,13.58,4.09,14.93a.57.57,0,0,0,.57.09c2.69-.91,4.59-9.27,5.29-15Zm11.07,0h0Z" fill="#093f68"></path><path d="M294.53,235.29H105.68a1,1,0,0,1,0-2H294.53a1,1,0,0,1,0,2Z" fill="#093f68"></path><ellipse cx="201.06" cy="205.71" rx="7.04" ry="5.31" fill="#f56132"></ellipse><path d="M201.06,212c-4.44,0-8-2.83-8-6.3s3.6-6.31,8-6.31,8,2.83,8,6.31S205.49,212,201.06,212Zm0-10.61c-3.33,0-6,1.93-6,4.31s2.71,4.3,6,4.3,6-1.93,6-4.3S204.39,201.4,201.06,201.4Z" fill="#093f68"></path><path d="M201.06,201.4h-.17a1,1,0,0,1-.82-1.15c.09-.51.92-4.92,4-5.28a1,1,0,1,1,.23,2c-1.24.15-2,2.51-2.23,3.63A1,1,0,0,1,201.06,201.4Z" fill="#093f68"></path><path d="M132,205.59h20.07a0,0,0,0,1,0,0v20.27a8.05,8.05,0,0,1-8.05,8.05h-4a8.05,8.05,0,0,1-8.05-8.05V205.59A0,0,0,0,1,132,205.59Z" fill="#ffbc0e"></path><path d="M144,234.91h-4a9.06,9.06,0,0,1-9.05-9V205.59a1,1,0,0,1,1-1h20.07a1,1,0,0,1,1,1v20.27A9.07,9.07,0,0,1,144,234.91Zm-11-28.32v19.27a7.05,7.05,0,0,0,7.05,7h4a7.06,7.06,0,0,0,7.06-7V206.59Z" fill="#093f68"></path><path d="M132,225.11h-.21a8.61,8.61,0,0,1,0-17.21H132a1,1,0,0,1,1,1v15.21A1,1,0,0,1,132,225.11ZM131,210a6.6,6.6,0,0,0,0,13.11Z" fill="#093f68"></path><polygon points="287.76 211.01 287.76 191.92 249.33 191.92 249.33 211.01 244.26 211.01 244.26 222.75 248.64 222.75 248.64 234.29 287.07 234.29 287.07 222.56 282.7 222.56 282.7 211.01 287.76 211.01" fill="#fff"></polygon><path d="M287.07,235.29H248.64a1,1,0,0,1-1-1V223.75h-3.38a1,1,0,0,1-1-1V211a1,1,0,0,1,1-1h4.07V191.92a1,1,0,0,1,1-1h38.43a1,1,0,0,1,1,1V211a1,1,0,0,1-1,1H283.7v9.55h3.37a1,1,0,0,1,1,1v11.73A1,1,0,0,1,287.07,235.29Zm-37.43-2h36.43v-9.73H282.7a1,1,0,0,1-1-1V211a1,1,0,0,1,1-1h4.06V192.92H250.33V211a1,1,0,0,1-1,1h-4.07v9.74h3.38a1,1,0,0,1,1,1Z" fill="#093f68"></path><path d="M282.7,223.56H258.78a1,1,0,0,1,0-2H282.7a1,1,0,0,1,0,2Z" fill="#093f68"></path><path d="M263,212H249.33a1,1,0,0,1,0-2H263a1,1,0,0,1,0,2Z" fill="#093f68"></path><path d="M282.7,212H272.29a1,1,0,0,1,0-2H282.7a1,1,0,0,1,0,2Z" fill="#093f68"></path><path d="M287.76,204.13H255a1,1,0,0,1,0-2h32.78a1,1,0,0,1,0,2Z" fill="#093f68"></path><path d="M275.25,198.22H249.91a1,1,0,0,1,0-2h25.34a1,1,0,0,1,0,2Z" fill="#093f68"></path><path d="M274.26,216.52H245.68a1,1,0,0,1,0-2h28.58a1,1,0,0,1,0,2Z" fill="#093f68"></path><path d="M279.05,228.17H248.64a1,1,0,0,1,0-2h30.41a1,1,0,0,1,0,2Z" fill="#093f68"></path><path d="M125,162.57a1,1,0,0,1-1-1V158a1,1,0,0,1,2,0v3.56A1,1,0,0,1,125,162.57Z" fill="#dfeaef"></path><path d="M125,170.29a1,1,0,0,1-1-1v-3.55a1,1,0,0,1,2,0v3.55A1,1,0,0,1,125,170.29Z" fill="#dfeaef"></path><path d="M130.65,164.65h-3.56a1,1,0,0,1,0-2h3.56a1,1,0,0,1,0,2Z" fill="#dfeaef"></path><path d="M122.92,164.65h-3.55a1,1,0,1,1,0-2h3.55a1,1,0,0,1,0,2Z" fill="#dfeaef"></path><path d="M270.45,164.65a1,1,0,0,1-1-1V160.1a1,1,0,1,1,2,0v3.55A1,1,0,0,1,270.45,164.65Z" fill="#dfeaef"></path><path d="M270.45,172.38a1,1,0,0,1-1-1v-3.55a1,1,0,1,1,2,0v3.55A1,1,0,0,1,270.45,172.38Z" fill="#dfeaef"></path><path d="M276.1,166.74h-3.56a1,1,0,0,1,0-2h3.56a1,1,0,0,1,0,2Z" fill="#dfeaef"></path><path d="M268.37,166.74h-3.56a1,1,0,0,1,0-2h3.56a1,1,0,0,1,0,2Z" fill="#dfeaef"></path><path d="M280,132.29a1,1,0,0,1-1-1v-3a1,1,0,0,1,2,0v3A1,1,0,0,1,280,132.29Z" fill="#dfeaef"></path><path d="M280,138.8a1,1,0,0,1-1-1v-3a1,1,0,0,1,2,0v3A1,1,0,0,1,280,138.8Z" fill="#dfeaef"></path><path d="M284.71,134.05h-3a1,1,0,0,1,0-2h3a1,1,0,0,1,0,2Z" fill="#dfeaef"></path><path d="M278.2,134.05h-3a1,1,0,0,1,0-2h3a1,1,0,0,1,0,2Z" fill="#dfeaef"></path></g></svg>